<?xml version="1.0" encoding="UTF-8" standalone="no"?>
<svg width="200px" height="200px" viewBox="0 0 200 200" version="1.1" xmlns="http://www.w3.org/2000/svg" xmlns:xlink="http://www.w3.org/1999/xlink" xmlns:sketch="http://www.bohemiancoding.com/sketch/ns">
    <title>balzac</title>
    <description>Created with Sketch (http://www.bohemiancoding.com/sketch)</description>
    <defs></defs>
    <g id="Page-1" stroke="none" stroke-width="1" fill="none" fill-rule="evenodd" sketch:type="MSPage">
        <g id="balzac" sketch:type="MSArtboardGroup">
            <rect d="M0,0 L0,200 L200,200 L200,0 L0,0 Z M0,0" id="Rectangle-1" fill="#8AB9D1" sketch:type="MSShapeGroup" x="0" y="0" width="200" height="200"></rect>
            <path d="M97.48,66 C93.928,66 91.528,66.288 86.536,66.288 C78.28,66.288 73,66 73,66 L73,68.784 L76.168,69.264 C80.104,69.84 81.736,71.088 81.736,75.504 L81.736,120.528 C81.736,126.096 79.624,129.168 75.496,129.936 L73,130.416 L73,133.2 C73,133.2 77.992,132.912 86.152,132.912 C92.296,132.912 96.328,133.2 101.128,133.2 C115.432,133.2 122.632,125.52 122.632,115.248 C122.632,106.704 115.528,99.216 104.488,97.296 C109.48,95.856 117.544,91.728 117.544,80.976 C117.544,72.24 110.632,66 97.48,66 Z M90.952,99.6 C90.952,99.6 91.72,99.504 92.776,99.504 C97.48,99.504 112.648,100.752 112.648,116.112 C112.648,124.08 107.176,129.936 98.344,129.936 C94.024,129.936 90.952,127.824 90.952,123.696 C90.952,123.696 90.952,127.824 90.952,123.696 L90.952,99.6 Z M90.952,69.936 C92.008,69.648 93.64,69.264 95.944,69.264 C103.24,69.264 108.328,73.872 108.328,81.072 C108.328,87.888 105.448,93.552 100.744,96.72 C100.744,96.72 98.44,96.432 95.56,96.432 C94.12,96.432 92.488,96.528 90.952,96.72 C90.952,96.72 92.488,96.528 90.952,96.72 L90.952,69.936 Z M90.952,69.936" id="B" fill="#FFFFFF" sketch:type="MSShapeGroup"></path>
        </g>
    </g>
</svg>